<svg xmlns="http://www.w3.org/2000/svg" width="920" height="560" viewBox="0 0 920 560">
<rect x="0" y="0" width="920" height="560" fill="white" />
<line x1="80" y1="490.00" x2="890" y2="490.00" stroke="#e5e7eb" stroke-width="1" />
<text x="68" y="494.00" text-anchor="end" font-size="12" fill="#374151">0.0</text>
<line x1="80" y1="446.00" x2="890" y2="446.00" stroke="#e5e7eb" stroke-width="1" />
<text x="68" y="450.00" text-anchor="end" font-size="12" fill="#374151">0.1</text>
<line x1="80" y1="402.00" x2="890" y2="402.00" stroke="#e5e7eb" stroke-width="1" />
<text x="68" y="406.00" text-anchor="end" font-size="12" fill="#374151">0.2</text>
<line x1="80" y1="358.00" x2="890" y2="358.00" stroke="#e5e7eb" stroke-width="1" />
<text x="68" y="362.00" text-anchor="end" font-size="12" fill="#374151">0.3</text>
<line x1="80" y1="314.00" x2="890" y2="314.00" stroke="#e5e7eb" stroke-width="1" />
<text x="68" y="318.00" text-anchor="end" font-size="12" fill="#374151">0.4</text>
<line x1="80" y1="270.00" x2="890" y2="270.00" stroke="#e5e7eb" stroke-width="1" />
<text x="68" y="274.00" text-anchor="end" font-size="12" fill="#374151">0.5</text>
<line x1="80" y1="226.00" x2="890" y2="226.00" stroke="#e5e7eb" stroke-width="1" />
<text x="68" y="230.00" text-anchor="end" font-size="12" fill="#374151">0.6</text>
<line x1="80" y1="182.00" x2="890" y2="182.00" stroke="#e5e7eb" stroke-width="1" />
<text x="68" y="186.00" text-anchor="end" font-size="12" fill="#374151">0.7</text>
<line x1="80" y1="138.00" x2="890" y2="138.00" stroke="#e5e7eb" stroke-width="1" />
<text x="68" y="142.00" text-anchor="end" font-size="12" fill="#374151">0.8</text>
<line x1="80" y1="94.00" x2="890" y2="94.00" stroke="#e5e7eb" stroke-width="1" />
<text x="68" y="98.00" text-anchor="end" font-size="12" fill="#374151">0.9</text>
<line x1="80" y1="50.00" x2="890" y2="50.00" stroke="#e5e7eb" stroke-width="1" />
<text x="68" y="54.00" text-anchor="end" font-size="12" fill="#374151">1.0</text>
<line x1="80.00" y1="50" x2="80.00" y2="490" stroke="#f3f4f6" stroke-width="1" />
<text x="80.00" y="514" text-anchor="middle" font-size="12" fill="#374151">-400</text>
<line x1="125.00" y1="50" x2="125.00" y2="490" stroke="#f3f4f6" stroke-width="1" />
<text x="125.00" y="514" text-anchor="middle" font-size="12" fill="#374151">-350</text>
<line x1="170.00" y1="50" x2="170.00" y2="490" stroke="#f3f4f6" stroke-width="1" />
<text x="170.00" y="514" text-anchor="middle" font-size="12" fill="#374151">-300</text>
<line x1="215.00" y1="50" x2="215.00" y2="490" stroke="#f3f4f6" stroke-width="1" />
<text x="215.00" y="514" text-anchor="middle" font-size="12" fill="#374151">-250</text>
<line x1="260.00" y1="50" x2="260.00" y2="490" stroke="#f3f4f6" stroke-width="1" />
<text x="260.00" y="514" text-anchor="middle" font-size="12" fill="#374151">-200</text>
<line x1="305.00" y1="50" x2="305.00" y2="490" stroke="#f3f4f6" stroke-width="1" />
<text x="305.00" y="514" text-anchor="middle" font-size="12" fill="#374151">-150</text>
<line x1="350.00" y1="50" x2="350.00" y2="490" stroke="#f3f4f6" stroke-width="1" />
<text x="350.00" y="514" text-anchor="middle" font-size="12" fill="#374151">-100</text>
<line x1="395.00" y1="50" x2="395.00" y2="490" stroke="#f3f4f6" stroke-width="1" />
<text x="395.00" y="514" text-anchor="middle" font-size="12" fill="#374151">-50</text>
<line x1="440.00" y1="50" x2="440.00" y2="490" stroke="#f3f4f6" stroke-width="1" />
<text x="440.00" y="514" text-anchor="middle" font-size="12" fill="#374151">0</text>
<line x1="485.00" y1="50" x2="485.00" y2="490" stroke="#f3f4f6" stroke-width="1" />
<text x="485.00" y="514" text-anchor="middle" font-size="12" fill="#374151">50</text>
<line x1="530.00" y1="50" x2="530.00" y2="490" stroke="#f3f4f6" stroke-width="1" />
<text x="530.00" y="514" text-anchor="middle" font-size="12" fill="#374151">100</text>
<line x1="575.00" y1="50" x2="575.00" y2="490" stroke="#f3f4f6" stroke-width="1" />
<text x="575.00" y="514" text-anchor="middle" font-size="12" fill="#374151">150</text>
<line x1="620.00" y1="50" x2="620.00" y2="490" stroke="#f3f4f6" stroke-width="1" />
<text x="620.00" y="514" text-anchor="middle" font-size="12" fill="#374151">200</text>
<line x1="665.00" y1="50" x2="665.00" y2="490" stroke="#f3f4f6" stroke-width="1" />
<text x="665.00" y="514" text-anchor="middle" font-size="12" fill="#374151">250</text>
<line x1="710.00" y1="50" x2="710.00" y2="490" stroke="#f3f4f6" stroke-width="1" />
<text x="710.00" y="514" text-anchor="middle" font-size="12" fill="#374151">300</text>
<line x1="755.00" y1="50" x2="755.00" y2="490" stroke="#f3f4f6" stroke-width="1" />
<text x="755.00" y="514" text-anchor="middle" font-size="12" fill="#374151">350</text>
<line x1="800.00" y1="50" x2="800.00" y2="490" stroke="#f3f4f6" stroke-width="1" />
<text x="800.00" y="514" text-anchor="middle" font-size="12" fill="#374151">400</text>
<line x1="845.00" y1="50" x2="845.00" y2="490" stroke="#f3f4f6" stroke-width="1" />
<text x="845.00" y="514" text-anchor="middle" font-size="12" fill="#374151">450</text>
<line x1="890.00" y1="50" x2="890.00" y2="490" stroke="#f3f4f6" stroke-width="1" />
<text x="890.00" y="514" text-anchor="middle" font-size="12" fill="#374151">500</text>
<line x1="80" y1="50" x2="80" y2="490" stroke="#111827" stroke-width="1.5" />
<line x1="80" y1="490" x2="890" y2="490" stroke="#111827" stroke-width="1.5" />
<polyline fill="none" stroke="#1f9d55" stroke-width="3" points="80.00,475.02 82.70,474.66 85.40,474.29 88.10,473.92 90.80,473.54 93.50,473.14 96.20,472.74 98.90,472.33 101.60,471.91 104.30,471.48 107.00,471.05 109.70,470.60 112.40,470.14 115.10,469.67 117.80,469.20 120.50,468.71 123.20,468.21 125.90,467.71 128.60,467.19 131.30,466.66 134.00,466.12 136.70,465.56 139.40,465.00 142.10,464.42 144.80,463.84 147.50,463.24 150.20,462.63 152.90,462.00 155.60,461.36 158.30,460.71 161.00,460.05 163.70,459.38 166.40,458.69 169.10,457.98 171.80,457.27 174.50,456.53 177.20,455.79 179.90,455.03 182.60,454.25 185.30,453.46 188.00,452.66 190.70,451.84 193.40,451.01 196.10,450.16 198.80,449.29 201.50,448.41 204.20,447.51 206.90,446.59 209.60,445.66 212.30,444.71 215.00,443.75 217.70,442.77 220.40,441.77 223.10,440.75 225.80,439.72 228.50,438.67 231.20,437.60 233.90,436.51 236.60,435.40 239.30,434.28 242.00,433.14 244.70,431.98 247.40,430.80 250.10,429.60 252.80,428.38 255.50,427.15 258.20,425.89 260.90,424.62 263.60,423.33 266.30,422.01 269.00,420.68 271.70,419.33 274.40,417.96 277.10,416.57 279.80,415.16 282.50,413.73 285.20,412.28 287.90,410.81 290.60,409.32 293.30,407.81 296.00,406.29 298.70,404.74 301.40,403.17 304.10,401.59 306.80,399.98 309.50,398.35 312.20,396.71 314.90,395.05 317.60,393.36 320.30,391.66 323.00,389.94 325.70,388.21 328.40,386.45 331.10,384.67 333.80,382.88 336.50,381.07 339.20,379.24 341.90,377.39 344.60,375.53 347.30,373.65 350.00,371.75 352.70,369.83 355.40,367.90 358.10,365.96 360.80,363.99 363.50,362.02 366.20,360.02 368.90,358.01 371.60,355.99 374.30,353.96 377.00,351.91 379.70,349.84 382.40,347.76 385.10,345.68 387.80,343.57 390.50,341.46 393.20,339.34 395.90,337.20 398.60,335.05 401.30,332.90 404.00,330.73 406.70,328.56 409.40,326.37 412.10,324.18 414.80,321.98 417.50,319.77 420.20,317.56 422.90,315.34 425.60,313.11 428.30,310.88 431.00,308.64 433.70,306.40 436.40,304.16 439.10,301.91 441.80,299.66 444.50,297.40 447.20,295.15 449.90,292.89 452.60,290.63 455.30,288.37 458.00,286.12 460.70,283.86 463.40,281.60 466.10,279.35 468.80,277.09 471.50,274.84 474.20,272.60 476.90,270.35 479.60,268.11 482.30,265.88 485.00,263.64 487.70,261.42 490.40,259.20 493.10,256.99 495.80,254.78 498.50,252.58 501.20,250.39 503.90,248.20 506.60,246.03 509.30,243.86 512.00,241.70 514.70,239.55 517.40,237.42 520.10,235.29 522.80,233.17 525.50,231.06 528.20,228.97 530.90,226.88 533.60,224.81 536.30,222.75 539.00,220.70 541.70,218.67 544.40,216.65 547.10,214.64 549.80,212.64 552.50,210.66 555.20,208.69 557.90,206.74 560.60,204.80 563.30,202.88 566.00,200.97 568.70,199.08 571.40,197.20 574.10,195.33 576.80,193.49 579.50,191.65 582.20,189.84 584.90,188.04 587.60,186.25 590.30,184.48 593.00,182.73 595.70,180.99 598.40,179.27 601.10,177.57 603.80,175.88 606.50,174.21 609.20,172.56 611.90,170.92 614.60,169.30 617.30,167.70 620.00,166.11 622.70,164.54 625.40,162.98 628.10,161.45 630.80,159.93 633.50,158.42 636.20,156.94 638.90,155.46 641.60,154.01 644.30,152.57 647.00,151.15 649.70,149.75 652.40,148.36 655.10,146.99 657.80,145.63 660.50,144.29 663.20,142.97 665.90,141.66 668.60,140.37 671.30,139.09 674.00,137.83 676.70,136.59 679.40,135.36 682.10,134.14 684.80,132.95 687.50,131.76 690.20,130.59 692.90,129.44 695.60,128.30 698.30,127.18 701.00,126.07 703.70,124.98 706.40,123.90 709.10,122.83 711.80,121.78 714.50,120.74 717.20,119.72 719.90,118.71 722.60,117.71 725.30,116.73 728.00,115.76 730.70,114.80 733.40,113.86 736.10,112.93 738.80,112.01 741.50,111.11 744.20,110.21 746.90,109.33 749.60,108.47 752.30,107.61 755.00,106.77 757.70,105.94 760.40,105.12 763.10,104.31 765.80,103.51 768.50,102.72 771.20,101.95 773.90,101.19 776.60,100.43 779.30,99.69 782.00,98.96 784.70,98.24 787.40,97.53 790.10,96.83 792.80,96.14 795.50,95.46 798.20,94.79 800.90,94.13 803.60,93.48 806.30,92.84 809.00,92.21 811.70,91.58 814.40,90.97 817.10,90.36 819.80,89.77 822.50,89.18 825.20,88.60 827.90,88.03 830.60,87.47 833.30,86.92 836.00,86.37 838.70,85.84 841.40,85.31 844.10,84.79 846.80,84.27 849.50,83.77 852.20,83.27 854.90,82.78 857.60,82.29 860.30,81.82 863.00,81.35 865.70,80.88 868.40,80.43 871.10,79.98 873.80,79.54 876.50,79.10 879.20,78.67 881.90,78.25 884.60,77.83 887.30,77.42 890.00,77.02" />
<polyline fill="none" stroke="#d97706" stroke-width="3" points="80.00,433.26 82.70,432.71 85.40,432.16 88.10,431.60 90.80,431.04 93.50,430.48 96.20,429.91 98.90,429.34 101.60,428.77 104.30,428.19 107.00,427.61 109.70,427.03 112.40,426.45 115.10,425.86 117.80,425.28 120.50,424.68 123.20,424.09 125.90,423.50 128.60,422.90 131.30,422.30 134.00,421.69 136.70,421.09 139.40,420.48 142.10,419.88 144.80,419.27 147.50,418.66 150.20,418.04 152.90,417.43 155.60,416.81 158.30,416.20 161.00,415.58 163.70,414.96 166.40,414.34 169.10,413.72 171.80,413.10 174.50,412.48 177.20,411.86 179.90,411.24 182.60,410.62 185.30,410.00 188.00,409.38 190.70,408.76 193.40,408.14 196.10,407.52 198.80,406.90 201.50,406.29 204.20,405.67 206.90,405.06 209.60,404.45 212.30,403.84 215.00,403.23 217.70,402.62 220.40,402.02 223.10,401.42 225.80,400.82 228.50,400.23 231.20,399.64 233.90,399.05 236.60,398.47 239.30,397.88 242.00,397.31 244.70,396.74 247.40,396.17 250.10,395.61 252.80,395.05 255.50,394.49 258.20,393.95 260.90,393.40 263.60,392.87 266.30,392.34 269.00,391.81 271.70,391.30 274.40,390.79 277.10,390.28 279.80,389.79 282.50,389.30 285.20,388.82 287.90,388.34 290.60,387.88 293.30,387.42 296.00,386.97 298.70,386.53 301.40,386.10 304.10,385.68 306.80,385.27 309.50,384.86 312.20,384.47 314.90,384.09 317.60,383.72 320.30,383.35 323.00,383.00 325.70,382.66 328.40,382.33 331.10,382.02 333.80,381.71 336.50,381.41 339.20,381.13 341.90,380.86 344.60,380.60 347.30,380.36 350.00,380.12 352.70,379.90 355.40,379.69 358.10,379.50 360.80,379.32 363.50,379.15 366.20,378.99 368.90,378.85 371.60,378.72 374.30,378.61 377.00,378.51 379.70,378.42 382.40,378.35 385.10,378.29 387.80,378.24 390.50,378.21 393.20,378.20 395.90,378.19 398.60,378.21 401.30,378.23 404.00,378.27 406.70,378.33 409.40,378.40 412.10,378.48 414.80,378.58 417.50,378.69 420.20,378.81 422.90,378.95 425.60,379.11 428.30,379.27 431.00,379.46 433.70,379.65 436.40,379.86 439.10,380.08 441.80,380.32 444.50,380.57 447.20,380.83 449.90,381.11 452.60,381.40 455.30,381.70 458.00,382.02 460.70,382.34 463.40,382.68 466.10,383.04 468.80,383.40 471.50,383.78 474.20,384.17 476.90,384.57 479.60,384.98 482.30,385.40 485.00,385.83 487.70,386.28 490.40,386.73 493.10,387.19 495.80,387.67 498.50,388.15 501.20,388.65 503.90,389.15 506.60,389.66 509.30,390.19 512.00,390.72 514.70,391.25 517.40,391.80 520.10,392.35 522.80,392.92 525.50,393.49 528.20,394.06 530.90,394.65 533.60,395.24 536.30,395.83 539.00,396.44 541.70,397.04 544.40,397.66 547.10,398.28 549.80,398.90 552.50,399.53 555.20,400.17 557.90,400.80 560.60,401.45 563.30,402.09 566.00,402.74 568.70,403.40 571.40,404.06 574.10,404.72 576.80,405.38 579.50,406.04 582.20,406.71 584.90,407.38 587.60,408.05 590.30,408.72 593.00,409.40 595.70,410.07 598.40,410.75 601.10,411.43 603.80,412.11 606.50,412.79 609.20,413.46 611.90,414.14 614.60,414.82 617.30,415.50 620.00,416.18 622.70,416.85 625.40,417.53 628.10,418.21 630.80,418.88 633.50,419.55 636.20,420.23 638.90,420.90 641.60,421.56 644.30,422.23 647.00,422.89 649.70,423.56 652.40,424.22 655.10,424.87 657.80,425.53 660.50,426.18 663.20,426.83 665.90,427.48 668.60,428.12 671.30,428.76 674.00,429.40 676.70,430.03 679.40,430.67 682.10,431.29 684.80,431.92 687.50,432.54 690.20,433.15 692.90,433.77 695.60,434.38 698.30,434.98 701.00,435.59 703.70,436.18 706.40,436.78 709.10,437.37 711.80,437.95 714.50,438.54 717.20,439.11 719.90,439.69 722.60,440.25 725.30,440.82 728.00,441.38 730.70,441.94 733.40,442.49 736.10,443.03 738.80,443.58 741.50,444.12 744.20,444.65 746.90,445.18 749.60,445.70 752.30,446.22 755.00,446.74 757.70,447.25 760.40,447.76 763.10,448.26 765.80,448.76 768.50,449.25 771.20,449.74 773.90,450.22 776.60,450.70 779.30,451.17 782.00,451.64 784.70,452.11 787.40,452.57 790.10,453.03 792.80,453.48 795.50,453.93 798.20,454.37 800.90,454.81 803.60,455.24 806.30,455.67 809.00,456.10 811.70,456.52 814.40,456.93 817.10,457.35 819.80,457.75 822.50,458.16 825.20,458.56 827.90,458.95 830.60,459.34 833.30,459.73 836.00,460.11 838.70,460.49 841.40,460.86 844.10,461.23 846.80,461.60 849.50,461.96 852.20,462.32 854.90,462.67 857.60,463.02 860.30,463.36 863.00,463.71 865.70,464.04 868.40,464.38 871.10,464.71 873.80,465.03 876.50,465.36 879.20,465.67 881.90,465.99 884.60,466.30 887.30,466.61 890.00,466.91" />
<polyline fill="none" stroke="#2563eb" stroke-width="3" points="80.00,121.72 82.70,122.63 85.40,123.55 88.10,124.48 90.80,125.42 93.50,126.38 96.20,127.35 98.90,128.33 101.60,129.32 104.30,130.32 107.00,131.34 109.70,132.37 112.40,133.41 115.10,134.46 117.80,135.53 120.50,136.60 123.20,137.70 125.90,138.80 128.60,139.92 131.30,141.05 134.00,142.19 136.70,143.35 139.40,144.52 142.10,145.70 144.80,146.90 147.50,148.11 150.20,149.33 152.90,150.57 155.60,151.82 158.30,153.09 161.00,154.37 163.70,155.66 166.40,156.97 169.10,158.29 171.80,159.63 174.50,160.98 177.20,162.35 179.90,163.73 182.60,165.13 185.30,166.54 188.00,167.96 190.70,169.40 193.40,170.85 196.10,172.32 198.80,173.81 201.50,175.31 204.20,176.82 206.90,178.35 209.60,179.89 212.30,181.45 215.00,183.02 217.70,184.61 220.40,186.21 223.10,187.83 225.80,189.46 228.50,191.10 231.20,192.76 233.90,194.44 236.60,196.13 239.30,197.83 242.00,199.55 244.70,201.29 247.40,203.03 250.10,204.79 252.80,206.57 255.50,208.36 258.20,210.16 260.90,211.98 263.60,213.81 266.30,215.65 269.00,217.50 271.70,219.37 274.40,221.26 277.10,223.15 279.80,225.06 282.50,226.98 285.20,228.91 287.90,230.85 290.60,232.80 293.30,234.77 296.00,236.74 298.70,238.73 301.40,240.73 304.10,242.74 306.80,244.76 309.50,246.78 312.20,248.82 314.90,250.87 317.60,252.92 320.30,254.98 323.00,257.05 325.70,259.13 328.40,261.22 331.10,263.31 333.80,265.41 336.50,267.52 339.20,269.63 341.90,271.75 344.60,273.87 347.30,276.00 350.00,278.13 352.70,280.26 355.40,282.40 358.10,284.54 360.80,286.69 363.50,288.84 366.20,290.98 368.90,293.13 371.60,295.29 374.30,297.44 377.00,299.59 379.70,301.74 382.40,303.89 385.10,306.04 387.80,308.18 390.50,310.33 393.20,312.47 395.90,314.61 398.60,316.74 401.30,318.87 404.00,321.00 406.70,323.12 409.40,325.23 412.10,327.34 414.80,329.44 417.50,331.54 420.20,333.63 422.90,335.71 425.60,337.78 428.30,339.84 431.00,341.90 433.70,343.95 436.40,345.98 439.10,348.01 441.80,350.02 444.50,352.03 447.20,354.02 449.90,356.00 452.60,357.97 455.30,359.92 458.00,361.87 460.70,363.80 463.40,365.71 466.10,367.62 468.80,369.50 471.50,371.38 474.20,373.24 476.90,375.08 479.60,376.91 482.30,378.73 485.00,380.52 487.70,382.30 490.40,384.07 493.10,385.82 495.80,387.55 498.50,389.27 501.20,390.96 503.90,392.64 506.60,394.31 509.30,395.95 512.00,397.58 514.70,399.19 517.40,400.78 520.10,402.36 522.80,403.91 525.50,405.45 528.20,406.97 530.90,408.47 533.60,409.95 536.30,411.42 539.00,412.86 541.70,414.29 544.40,415.70 547.10,417.08 549.80,418.45 552.50,419.81 555.20,421.14 557.90,422.45 560.60,423.75 563.30,425.03 566.00,426.29 568.70,427.53 571.40,428.75 574.10,429.95 576.80,431.14 579.50,432.30 582.20,433.45 584.90,434.58 587.60,435.70 590.30,436.79 593.00,437.87 595.70,438.93 598.40,439.98 601.10,441.00 603.80,442.01 606.50,443.00 609.20,443.98 611.90,444.94 614.60,445.88 617.30,446.80 620.00,447.71 622.70,448.61 625.40,449.48 628.10,450.35 630.80,451.19 633.50,452.02 636.20,452.84 638.90,453.64 641.60,454.43 644.30,455.20 647.00,455.95 649.70,456.70 652.40,457.43 655.10,458.14 657.80,458.84 660.50,459.53 663.20,460.20 665.90,460.86 668.60,461.51 671.30,462.15 674.00,462.77 676.70,463.38 679.40,463.98 682.10,464.56 684.80,465.14 687.50,465.70 690.20,466.25 692.90,466.79 695.60,467.32 698.30,467.84 701.00,468.34 703.70,468.84 706.40,469.33 709.10,469.80 711.80,470.27 714.50,470.72 717.20,471.17 719.90,471.61 722.60,472.03 725.30,472.45 728.00,472.86 730.70,473.26 733.40,473.65 736.10,474.04 738.80,474.41 741.50,474.78 744.20,475.14 746.90,475.49 749.60,475.83 752.30,476.17 755.00,476.49 757.70,476.81 760.40,477.13 763.10,477.43 765.80,477.73 768.50,478.03 771.20,478.31 773.90,478.59 776.60,478.87 779.30,479.13 782.00,479.39 784.70,479.65 787.40,479.90 790.10,480.14 792.80,480.38 795.50,480.61 798.20,480.84 800.90,481.06 803.60,481.28 806.30,481.49 809.00,481.70 811.70,481.90 814.40,482.10 817.10,482.29 819.80,482.48 822.50,482.66 825.20,482.84 827.90,483.02 830.60,483.19 833.30,483.35 836.00,483.52 838.70,483.68 841.40,483.83 844.10,483.98 846.80,484.13 849.50,484.28 852.20,484.42 854.90,484.55 857.60,484.69 860.30,484.82 863.00,484.95 865.70,485.07 868.40,485.20 871.10,485.31 873.80,485.43 876.50,485.54 879.20,485.65 881.90,485.76 884.60,485.87 887.30,485.97 890.00,486.07" />
<text x="460.00" y="26" text-anchor="middle" font-size="22" font-family="Arial, sans-serif" fill="#111827">Match Outcome Probabilities From EloDiff</text>
<text x="460.00" y="542" text-anchor="middle" font-size="14" font-family="Arial, sans-serif" fill="#111827">EloDiff (HomeElo - AwayElo)</text>
<text x="20" y="280.00" text-anchor="middle" font-size="14" font-family="Arial, sans-serif" fill="#111827" transform="rotate(-90 20 280.00)">Predicted Probability</text>
<line x1="720" y1="54" x2="744" y2="54" stroke="#1f9d55" stroke-width="3" />
<text x="754" y="58" font-size="13" fill="#111827">Home Win</text>
<line x1="720" y1="78" x2="744" y2="78" stroke="#d97706" stroke-width="3" />
<text x="754" y="82" font-size="13" fill="#111827">Draw</text>
<line x1="720" y1="102" x2="744" y2="102" stroke="#2563eb" stroke-width="3" />
<text x="754" y="106" font-size="13" fill="#111827">Away Win</text>
</svg>